<svg xmlns="http://www.w3.org/2000/svg" viewBox="0 0 1024 1024" role="img" aria-labelledby="title desc">
<title>Gear Closet logo</title><desc>Minimal backpack logo with mountain and packing checklist.</desc>
<g fill="none" stroke="#FFFFFF" stroke-width="56" stroke-linecap="round" stroke-linejoin="round">
  <path d="M405 250v-34c0-65 50-112 107-112s107 47 107 112v34"/>
  <path d="M217 866V393c0-89 71-161 160-161h270c89 0 160 72 160 161v473c0 48-39 86-86 86H303c-47 0-86-38-86-86Z"/>
  <path d="M217 564c-75 40-114 100-114 176 0 82 48 140 114 158"/>
  <path d="M807 564c75 40 114 100 114 176 0 82-48 140-114 158"/>
</g>
<path fill="#FFFFFF" d="M224 650 402 458l73 82 132-186 190 296H224Z"/>
<g fill="#000000"><path d="M412 508 476 579 607 394 633 435 479 642 402 556 322 650H246Z"/></g>
<g fill="none" stroke="#FFFFFF" stroke-width="42" stroke-linecap="round" stroke-linejoin="round">
  <rect x="343" y="632" width="338" height="221" rx="55" fill="#000000"/>
  <path d="m414 711 35 35 72-80"/>
  <path d="M563 709h96"/>
  <path d="m414 796 35 35 72-80"/>
  <path d="M563 794h96"/>
</g>
</svg>